<mxfile host="app.diagrams.net" agent="Mozilla/5.0 (Windows NT 10.0; Win64; x64) AppleWebKit/537.36 (KHTML, like Gecko) Chrome/128.0.0.0 Safari/537.36 OPR/114.0.0.0 (Edition std-1)" version="24.9.0">
  <diagram id="C5RBs43oDa-KdzZeNtuy" name="Page-1">
    <mxGraphModel grid="1" page="1" gridSize="10" guides="1" tooltips="1" connect="1" arrows="1" fold="1" pageScale="1" pageWidth="827" pageHeight="1169" math="0" shadow="0">
      <root>
        <mxCell id="WIyWlLk6GJQsqaUBKTNV-0" />
        <mxCell id="WIyWlLk6GJQsqaUBKTNV-1" parent="WIyWlLk6GJQsqaUBKTNV-0" />
        <mxCell id="vwayzrv-xnUe_ZnmypPm-0" value="&lt;font style=&quot;font-size: 14px;&quot;&gt;Início&lt;/font&gt;" style="ellipse;whiteSpace=wrap;html=1;" vertex="1" parent="WIyWlLk6GJQsqaUBKTNV-1">
          <mxGeometry x="310" y="70" width="155" height="50" as="geometry" />
        </mxCell>
        <mxCell id="vwayzrv-xnUe_ZnmypPm-1" value="" style="endArrow=classic;html=1;rounded=0;" edge="1" parent="WIyWlLk6GJQsqaUBKTNV-1">
          <mxGeometry width="50" height="50" relative="1" as="geometry">
            <mxPoint x="387" y="170" as="sourcePoint" />
            <mxPoint x="387" y="170" as="targetPoint" />
            <Array as="points">
              <mxPoint x="387" y="140" />
              <mxPoint x="387" y="120" />
            </Array>
          </mxGeometry>
        </mxCell>
        <mxCell id="vwayzrv-xnUe_ZnmypPm-6" value="" style="endArrow=classic;html=1;rounded=0;exitX=0.5;exitY=1;exitDx=0;exitDy=0;entryX=0.5;entryY=0;entryDx=0;entryDy=0;" edge="1" parent="WIyWlLk6GJQsqaUBKTNV-1">
          <mxGeometry width="50" height="50" relative="1" as="geometry">
            <mxPoint x="387.5" y="230" as="sourcePoint" />
            <mxPoint x="387.5" y="290" as="targetPoint" />
            <Array as="points" />
          </mxGeometry>
        </mxCell>
        <mxCell id="WVZjpVArLjmev4GUE2vZ-3" value="email" style="shape=parallelogram;perimeter=parallelogramPerimeter;whiteSpace=wrap;html=1;fixedSize=1;" vertex="1" parent="WIyWlLk6GJQsqaUBKTNV-1">
          <mxGeometry x="327.5" y="170" width="120" height="60" as="geometry" />
        </mxCell>
        <mxCell id="WVZjpVArLjmev4GUE2vZ-11" value="" style="edgeStyle=orthogonalEdgeStyle;rounded=0;orthogonalLoop=1;jettySize=auto;html=1;" edge="1" parent="WIyWlLk6GJQsqaUBKTNV-1" source="WVZjpVArLjmev4GUE2vZ-6" target="WVZjpVArLjmev4GUE2vZ-10">
          <mxGeometry relative="1" as="geometry" />
        </mxCell>
        <mxCell id="WVZjpVArLjmev4GUE2vZ-6" value="senha" style="shape=parallelogram;perimeter=parallelogramPerimeter;whiteSpace=wrap;html=1;fixedSize=1;" vertex="1" parent="WIyWlLk6GJQsqaUBKTNV-1">
          <mxGeometry x="327.5" y="290" width="120" height="60" as="geometry" />
        </mxCell>
        <mxCell id="WVZjpVArLjmev4GUE2vZ-13" value="" style="edgeStyle=orthogonalEdgeStyle;rounded=0;orthogonalLoop=1;jettySize=auto;html=1;" edge="1" parent="WIyWlLk6GJQsqaUBKTNV-1" source="WVZjpVArLjmev4GUE2vZ-10" target="WVZjpVArLjmev4GUE2vZ-12">
          <mxGeometry relative="1" as="geometry" />
        </mxCell>
        <mxCell id="WVZjpVArLjmev4GUE2vZ-10" value="mensagem" style="shape=parallelogram;perimeter=parallelogramPerimeter;whiteSpace=wrap;html=1;fixedSize=1;" vertex="1" parent="WIyWlLk6GJQsqaUBKTNV-1">
          <mxGeometry x="327.5" y="430" width="120" height="60" as="geometry" />
        </mxCell>
        <mxCell id="WVZjpVArLjmev4GUE2vZ-12" value="email == emailUsuario" style="rhombus;whiteSpace=wrap;html=1;" vertex="1" parent="WIyWlLk6GJQsqaUBKTNV-1">
          <mxGeometry x="321.25" y="560" width="132.5" height="120" as="geometry" />
        </mxCell>
        <mxCell id="-nJWhAcKx4fPJMeUFbpo-13" value="" style="edgeStyle=orthogonalEdgeStyle;rounded=0;orthogonalLoop=1;jettySize=auto;html=1;" edge="1" parent="WIyWlLk6GJQsqaUBKTNV-1" source="WVZjpVArLjmev4GUE2vZ-12">
          <mxGeometry relative="1" as="geometry">
            <mxPoint x="454" y="620" as="sourcePoint" />
            <mxPoint x="450" y="760" as="targetPoint" />
            <Array as="points" />
          </mxGeometry>
        </mxCell>
        <mxCell id="-nJWhAcKx4fPJMeUFbpo-15" value="" style="edgeStyle=orthogonalEdgeStyle;rounded=0;orthogonalLoop=1;jettySize=auto;html=1;" edge="1" parent="WIyWlLk6GJQsqaUBKTNV-1" source="WVZjpVArLjmev4GUE2vZ-12">
          <mxGeometry relative="1" as="geometry">
            <mxPoint x="321" y="620" as="sourcePoint" />
            <mxPoint x="330" y="760" as="targetPoint" />
          </mxGeometry>
        </mxCell>
        <mxCell id="-nJWhAcKx4fPJMeUFbpo-24" value="" style="edgeStyle=orthogonalEdgeStyle;rounded=0;orthogonalLoop=1;jettySize=auto;html=1;" edge="1" parent="WIyWlLk6GJQsqaUBKTNV-1" source="-nJWhAcKx4fPJMeUFbpo-20" target="-nJWhAcKx4fPJMeUFbpo-22">
          <mxGeometry relative="1" as="geometry" />
        </mxCell>
        <mxCell id="-nJWhAcKx4fPJMeUFbpo-20" value="Não" style="text;html=1;align=center;verticalAlign=middle;whiteSpace=wrap;rounded=0;" vertex="1" parent="WIyWlLk6GJQsqaUBKTNV-1">
          <mxGeometry x="300" y="760" width="60" height="30" as="geometry" />
        </mxCell>
        <mxCell id="-nJWhAcKx4fPJMeUFbpo-23" value="" style="edgeStyle=orthogonalEdgeStyle;rounded=0;orthogonalLoop=1;jettySize=auto;html=1;" edge="1" parent="WIyWlLk6GJQsqaUBKTNV-1" source="-nJWhAcKx4fPJMeUFbpo-21" target="-nJWhAcKx4fPJMeUFbpo-22">
          <mxGeometry relative="1" as="geometry" />
        </mxCell>
        <mxCell id="-nJWhAcKx4fPJMeUFbpo-21" value="Sim" style="text;html=1;align=center;verticalAlign=middle;whiteSpace=wrap;rounded=0;" vertex="1" parent="WIyWlLk6GJQsqaUBKTNV-1">
          <mxGeometry x="420" y="760" width="60" height="30" as="geometry" />
        </mxCell>
        <mxCell id="-nJWhAcKx4fPJMeUFbpo-27" value="" style="edgeStyle=orthogonalEdgeStyle;rounded=0;orthogonalLoop=1;jettySize=auto;html=1;" edge="1" parent="WIyWlLk6GJQsqaUBKTNV-1" source="-nJWhAcKx4fPJMeUFbpo-22">
          <mxGeometry relative="1" as="geometry">
            <mxPoint x="450" y="1040" as="targetPoint" />
            <Array as="points">
              <mxPoint x="388" y="1000" />
              <mxPoint x="450" y="1000" />
            </Array>
          </mxGeometry>
        </mxCell>
        <mxCell id="-nJWhAcKx4fPJMeUFbpo-22" value="senha == senhaUsuario" style="rhombus;whiteSpace=wrap;html=1;" vertex="1" parent="WIyWlLk6GJQsqaUBKTNV-1">
          <mxGeometry x="321.25" y="850" width="132.5" height="120" as="geometry" />
        </mxCell>
        <mxCell id="-nJWhAcKx4fPJMeUFbpo-25" value="Sim" style="text;html=1;align=center;verticalAlign=middle;whiteSpace=wrap;rounded=0;" vertex="1" parent="WIyWlLk6GJQsqaUBKTNV-1">
          <mxGeometry x="420" y="1040" width="60" height="30" as="geometry" />
        </mxCell>
        <mxCell id="-nJWhAcKx4fPJMeUFbpo-26" value="Exibe Mensagem de Sucesso: &quot;Olá, emailUsuario! Seja bem-vindo :D&quot;" style="whiteSpace=wrap;html=1;" vertex="1" parent="WIyWlLk6GJQsqaUBKTNV-1">
          <mxGeometry x="180" y="1169" width="130" height="61" as="geometry" />
        </mxCell>
        <mxCell id="-nJWhAcKx4fPJMeUFbpo-29" value="" style="edgeStyle=orthogonalEdgeStyle;rounded=0;orthogonalLoop=1;jettySize=auto;html=1;" edge="1" parent="WIyWlLk6GJQsqaUBKTNV-1">
          <mxGeometry relative="1" as="geometry">
            <mxPoint x="395.5" y="1000" as="sourcePoint" />
            <mxPoint x="330" y="1040" as="targetPoint" />
          </mxGeometry>
        </mxCell>
        <mxCell id="-nJWhAcKx4fPJMeUFbpo-30" value="Não" style="text;html=1;align=center;verticalAlign=middle;whiteSpace=wrap;rounded=0;" vertex="1" parent="WIyWlLk6GJQsqaUBKTNV-1">
          <mxGeometry x="300" y="1040" width="60" height="30" as="geometry" />
        </mxCell>
        <mxCell id="-nJWhAcKx4fPJMeUFbpo-337" value="" style="edgeStyle=orthogonalEdgeStyle;rounded=0;orthogonalLoop=1;jettySize=auto;html=1;exitX=0.5;exitY=1;exitDx=0;exitDy=0;" edge="1" parent="WIyWlLk6GJQsqaUBKTNV-1" source="-nJWhAcKx4fPJMeUFbpo-25">
          <mxGeometry relative="1" as="geometry">
            <mxPoint x="453.75" y="1080" as="sourcePoint" />
            <mxPoint x="391.75" y="1140" as="targetPoint" />
            <Array as="points">
              <mxPoint x="450" y="1100" />
              <mxPoint x="392" y="1100" />
            </Array>
          </mxGeometry>
        </mxCell>
        <mxCell id="-nJWhAcKx4fPJMeUFbpo-339" value="" style="edgeStyle=orthogonalEdgeStyle;rounded=0;orthogonalLoop=1;jettySize=auto;html=1;entryX=0.992;entryY=0.617;entryDx=0;entryDy=0;entryPerimeter=0;" edge="1" parent="WIyWlLk6GJQsqaUBKTNV-1" target="-nJWhAcKx4fPJMeUFbpo-26">
          <mxGeometry relative="1" as="geometry">
            <mxPoint x="330" y="1080" as="sourcePoint" />
            <mxPoint x="391.75" y="1160" as="targetPoint" />
            <Array as="points">
              <mxPoint x="330" y="1101" />
              <mxPoint x="392" y="1101" />
              <mxPoint x="392" y="1206" />
            </Array>
          </mxGeometry>
        </mxCell>
        <mxCell id="-nJWhAcKx4fPJMeUFbpo-340" value="Exibe Mensagem de Erro: &quot;Opa! Parece que você não é cadastrado&amp;nbsp; em nosso site :(&quot;" style="whiteSpace=wrap;html=1;" vertex="1" parent="WIyWlLk6GJQsqaUBKTNV-1">
          <mxGeometry x="465" y="1164" width="126.25" height="71" as="geometry" />
        </mxCell>
        <mxCell id="-nJWhAcKx4fPJMeUFbpo-346" value="" style="endArrow=classic;html=1;rounded=0;" edge="1" parent="WIyWlLk6GJQsqaUBKTNV-1">
          <mxGeometry width="50" height="50" relative="1" as="geometry">
            <mxPoint x="390" y="1207" as="sourcePoint" />
            <mxPoint x="464" y="1207" as="targetPoint" />
          </mxGeometry>
        </mxCell>
        <mxCell id="-nJWhAcKx4fPJMeUFbpo-348" value="" style="endArrow=none;html=1;rounded=0;entryX=0.5;entryY=1;entryDx=0;entryDy=0;" edge="1" parent="WIyWlLk6GJQsqaUBKTNV-1" target="-nJWhAcKx4fPJMeUFbpo-340">
          <mxGeometry width="50" height="50" relative="1" as="geometry">
            <mxPoint x="390" y="1530" as="sourcePoint" />
            <mxPoint x="410" y="1200" as="targetPoint" />
            <Array as="points">
              <mxPoint x="390" y="1420" />
              <mxPoint x="430" y="1420" />
              <mxPoint x="528" y="1420" />
            </Array>
          </mxGeometry>
        </mxCell>
        <mxCell id="-nJWhAcKx4fPJMeUFbpo-349" value="" style="endArrow=none;html=1;rounded=0;entryX=0.5;entryY=1;entryDx=0;entryDy=0;" edge="1" parent="WIyWlLk6GJQsqaUBKTNV-1">
          <mxGeometry width="50" height="50" relative="1" as="geometry">
            <mxPoint x="390" y="1530" as="sourcePoint" />
            <mxPoint x="238" y="1230" as="targetPoint" />
            <Array as="points">
              <mxPoint x="390" y="1420" />
              <mxPoint x="238" y="1420" />
            </Array>
          </mxGeometry>
        </mxCell>
        <mxCell id="-nJWhAcKx4fPJMeUFbpo-352" value="" style="endArrow=classic;html=1;rounded=0;" edge="1" parent="WIyWlLk6GJQsqaUBKTNV-1">
          <mxGeometry width="50" height="50" relative="1" as="geometry">
            <mxPoint x="390" y="1530" as="sourcePoint" />
            <mxPoint x="390" y="1540" as="targetPoint" />
            <Array as="points">
              <mxPoint x="390" y="1430" />
            </Array>
          </mxGeometry>
        </mxCell>
        <mxCell id="-nJWhAcKx4fPJMeUFbpo-353" value="&lt;font style=&quot;font-size: 14px;&quot;&gt;Fim&lt;/font&gt;" style="ellipse;whiteSpace=wrap;html=1;" vertex="1" parent="WIyWlLk6GJQsqaUBKTNV-1">
          <mxGeometry x="310" y="1540" width="155" height="50" as="geometry" />
        </mxCell>
      </root>
    </mxGraphModel>
  </diagram>
</mxfile>
